<?xml version="1.0" encoding="UTF-8" standalone="no"?>
<!-- Created with Inkscape (http://www.inkscape.org/) -->

<svg
   width="117.29665mm"
   height="37.10762mm"
   viewBox="0 0 117.29666 37.10762"
   version="1.1"
   id="svg1"
   inkscape:export-filename="bitmap.svg"
   inkscape:export-xdpi="93.699997"
   inkscape:export-ydpi="93.699997"
   inkscape:version="1.3.2 (091e20e, 2023-11-25, custom)"
   sodipodi:docname="dibujo.svg"
   xmlns:inkscape="http://www.inkscape.org/namespaces/inkscape"
   xmlns:sodipodi="http://sodipodi.sourceforge.net/DTD/sodipodi-0.dtd"
   xmlns:xlink="http://www.w3.org/1999/xlink"
   xmlns="http://www.w3.org/2000/svg"
   xmlns:svg="http://www.w3.org/2000/svg">
  <sodipodi:namedview
     id="namedview1"
     pagecolor="#505050"
     bordercolor="#eeeeee"
     borderopacity="0"
     inkscape:showpageshadow="0"
     inkscape:pageopacity="0"
     inkscape:pagecheckerboard="0"
     inkscape:deskcolor="#d1d1d1"
     inkscape:document-units="mm"
     inkscape:zoom="1.4142136"
     inkscape:cx="209.30361"
     inkscape:cy="63.286057"
     inkscape:window-width="1920"
     inkscape:window-height="1009"
     inkscape:window-x="-8"
     inkscape:window-y="-8"
     inkscape:window-maximized="1"
     inkscape:current-layer="layer4" />
  <defs
     id="defs1">
    <linearGradient
       id="linearGradient9"
       inkscape:collect="always">
      <stop
         style="stop-color:#388fe1;stop-opacity:1;"
         offset="0"
         id="stop9" />
      <stop
         style="stop-color:#00c2c2;stop-opacity:1;"
         offset="1"
         id="stop10" />
    </linearGradient>
    <linearGradient
       inkscape:collect="always"
       xlink:href="#linearGradient9"
       id="linearGradient10"
       x1="0.049128816"
       y1="36.836582"
       x2="31.069475"
       y2="1.851004"
       gradientUnits="userSpaceOnUse"
       gradientTransform="translate(0.05528378,1.7599999e-4)" />
    <linearGradient
       inkscape:collect="always"
       xlink:href="#linearGradient9"
       id="linearGradient13"
       x1="1.9182291"
       y1="35.321877"
       x2="23.415627"
       y2="9.9880209"
       gradientUnits="userSpaceOnUse"
       gradientTransform="translate(0.05528378,1.7599999e-4)" />
  </defs>
  <g
     inkscape:label="Capa 1"
     inkscape:groupmode="layer"
     id="layer1"
     transform="translate(-13.259301,-13.052072)">
    <path
       style="font-weight:bold;font-size:50.8px;line-height:0.9;font-family:Nunito;-inkscape-font-specification:'Nunito Bold';fill:#ffffff;stroke-width:0.264583"
       d="m 50.593452,50.034471 c -1.016,0 -1.794933,-0.3048 -2.3368,-0.9144 -0.541867,-0.6096 -0.8128,-1.456267 -0.8128,-2.54 v -18.6436 c 0,-1.117599 0.270933,-1.964266 0.8128,-2.539999 0.541867,-0.6096 1.3208,-0.9144 2.3368,-0.9144 1.016,0 1.794933,0.3048 2.3368,0.9144 0.575733,0.575733 0.8636,1.4224 0.8636,2.539999 v 18.6436 c 0,1.083733 -0.270933,1.9304 -0.8128,2.54 -0.541867,0.6096 -1.337733,0.9144 -2.3876,0.9144 z m 0,-30.276799 c -1.185333,0 -2.116667,-0.287867 -2.794,-0.8636 -0.643467,-0.6096 -0.9652,-1.439333 -0.9652,-2.4892 0,-1.083733 0.321733,-1.913467 0.9652,-2.4892 0.677333,-0.575733 1.608667,-0.8636 2.794,-0.8636 1.2192,0 2.150533,0.287867 2.794,0.8636 0.643467,0.575733 0.9652,1.405467 0.9652,2.4892 0,1.049867 -0.321733,1.8796 -0.9652,2.4892 -0.643467,0.575733 -1.5748,0.8636 -2.794,0.8636 z m 13.461957,30.327599 c -0.982133,0 -1.744133,-0.270933 -2.286,-0.8128 -0.508,-0.541867 -0.762,-1.3208 -0.762,-2.3368 V 16.709672 c 0,-1.049867 0.254,-1.845733 0.762,-2.3876 0.541867,-0.575733 1.236133,-0.8636 2.0828,-0.8636 0.778933,0 1.354667,0.1524 1.7272,0.4572 0.4064,0.270933 0.880533,0.745067 1.4224,1.4224 l 19.4564,25.247599 h -1.3208 V 16.557272 c 0,-0.982133 0.254,-1.744133 0.762,-2.286 0.541867,-0.541867 1.303867,-0.8128 2.286,-0.8128 0.982133,0 1.727199,0.270933 2.235199,0.8128 0.508,0.541867 0.762,1.303867 0.762,2.286 v 30.479999 c 0,0.948267 -0.237067,1.693333 -0.7112,2.2352 -0.474133,0.541867 -1.1176,0.8128 -1.930399,0.8128 -0.778933,0 -1.405467,-0.1524 -1.8796,-0.4572 -0.440267,-0.3048 -0.931333,-0.795867 -1.4732,-1.4732 l -19.4056,-25.247599 h 1.27 v 24.028399 c 0,1.016 -0.254,1.794933 -0.762,2.3368 -0.508,0.541867 -1.253067,0.8128 -2.2352,0.8128 z m 49.174361,0 c -0.9144,0 -1.6764,-0.2032 -2.286,-0.6096 -0.57573,-0.440267 -1.04987,-1.083733 -1.4224,-1.9304 L 96.262572,17.776472 c -0.372533,-0.846667 -0.474133,-1.591733 -0.3048,-2.2352 0.169333,-0.643467 0.524933,-1.151467 1.0668,-1.524 0.541867,-0.372533 1.185333,-0.5588 1.9304,-0.5588 0.982132,0 1.710268,0.220133 2.184398,0.6604 0.508,0.4064 0.93133,1.032933 1.27,1.8796 l 12.0396,27.889199 h -2.1844 l 11.9888,-27.939999 c 0.37253,-0.8128 0.8128,-1.4224 1.3208,-1.8288 0.508,-0.440267 1.2192,-0.6604 2.1336,-0.6604 0.74507,0 1.35467,0.186267 1.8288,0.5588 0.508,0.372533 0.82973,0.880533 0.9652,1.524 0.13547,0.643467 0.0169,1.388533 -0.3556,2.2352 l -13.2588,29.768799 c -0.37253,0.846667 -0.84667,1.490133 -1.4224,1.9304 -0.54187,0.4064 -1.28693,0.6096 -2.2352,0.6096 z"
       id="text1"
       aria-label="RiNV"
       sodipodi:nodetypes="sssscscssssscscssscsscsscsccccscssssssccccsssscccsssccccccscscccs" />
  </g>
  <g
     inkscape:groupmode="layer"
     id="layer3"
     inkscape:label="Capa 3"
     style="display:none"
     transform="translate(-0.05528378,-1.7599999e-4)">
    <path
       d="m 3.2535569,37.033041 c -1.049867,0 -1.862667,-0.287866 -2.43840025,-0.8636 -0.5418667,-0.6096 -0.8128,-1.439333 -0.8128,-2.489199 V 4.1146443 c 0,-1.0837333 0.2878667,-1.8965332 0.8636,-2.4383999 C 1.4416899,1.1005111 2.2544899,0.81264442 3.3043569,0.81264442 H 15.547156 c 7.954491,0 12.2936,4.05235368 12.2936,10.71879858 0,2.201333 -0.491067,4.097866 -1.4732,5.689599 -0.948267,1.591734 -2.3368,2.810933 -4.1656,3.6576 -1.8288,0.846667 -4.047067,1.27 -6.6548,1.27 l 0.4572,-0.762 h 1.6764 c 1.388533,0 2.5908,0.338667 3.6068,1.016 1.049867,0.677333 1.964267,1.744133 2.7432,3.2004 l 3.81,7.0612 c 0.4064,0.7112 0.592666,1.405466 0.5588,2.082799 -0.03387,0.677334 -0.287867,1.236134 -0.762,1.6764 -0.474134,0.4064 -1.1684,0.6096 -2.0828,0.6096 -0.9144,0 -1.659467,-0.186266 -2.2352,-0.5588 -0.575733,-0.4064 -1.083733,-1.016 -1.524,-1.8288 l -5.1308,-9.448799 c -0.6096,-1.151467 -1.337733,-1.913467 -2.1844,-2.286 -0.812799,-0.4064 -1.862666,-0.6096 -3.149599,-0.6096 H 6.5047569 v 11.3792 c 0,1.049866 -0.270934,1.879599 -0.8128,2.489199 -0.541867,0.575734 -1.354667,0.8636 -2.4384,0.8636 z m 3.2512,-19.557999 h 7.9247991 c 2.3368,0 4.097867,-0.474133 5.2832,-1.4224 1.2192,-0.982133 1.8288,-2.438399 1.8288,-4.368799 0,-1.8965323 -0.6096,-3.3189322 -1.8288,-4.2671988 -1.185333,-0.9821333 -2.9464,-1.4732 -5.2832,-1.4732 H 6.5047569 Z"
       style="font-weight:bold;font-size:50.8px;line-height:0.9;font-family:Nunito;-inkscape-font-specification:'Nunito Bold';fill:url(#linearGradient10);stroke-width:0.264583"
       id="path1"
       sodipodi:nodetypes="scsscssscsccscccscsccccscscscscscscc" />
  </g>
  <g
     inkscape:groupmode="layer"
     id="layer4"
     inkscape:label="Capa 4"
     transform="translate(-0.05528378,-1.7599999e-4)">
    <rect
       style="opacity:0.541936;fill:none;stroke:none;stroke-width:0.264583"
       id="rect13"
       width="27.876211"
       height="20.766844"
       x="0.18708867"
       y="0.93544334" />
    <path
       style="fill:url(#linearGradient13);fill-opacity:1;stroke:none;stroke-width:0.264583px;stroke-linecap:butt;stroke-linejoin:miter;stroke-opacity:1"
       d="M 0.06614583,0.06614582 0.13229166,22.158854 0.05528378,37.030804 9.7333263,37.00291 9.6619922,23.358873 18.988556,37.107798 30.360937,37.107794 19.579166,20.76977 31.551566,0.06612481 Z"
       id="path13"
       sodipodi:nodetypes="cccccccccc" />
  </g>
</svg>
